<svg width="40" height="40" viewBox="0 0 40 40" fill="none" xmlns="http://www.w3.org/2000/svg">
<g clip-path="url(#clip0_4396_344522)">
<path d="M20.0002 3.3335C10.8002 3.3335 3.3335 10.8002 3.3335 20.0002C3.3335 29.2002 10.8002 36.6668 20.0002 36.6668C29.2002 36.6668 36.6668 29.2002 36.6668 20.0002C36.6668 10.8002 29.2002 3.3335 20.0002 3.3335ZM15.4835 27.1502L9.50016 21.1668C8.85016 20.5168 8.85016 19.4668 9.50016 18.8168C10.1502 18.1668 11.2002 18.1668 11.8502 18.8168L16.6668 23.6168L28.1335 12.1502C28.7835 11.5002 29.8335 11.5002 30.4835 12.1502C31.1335 12.8002 31.1335 13.8502 30.4835 14.5002L17.8335 27.1502C17.2002 27.8002 16.1335 27.8002 15.4835 27.1502Z" fill="#65B168"/>
</g>
<defs>
<clipPath id="clip0_4396_344522">
<rect width="40" height="40" fill="white"/>
</clipPath>
</defs>
</svg>
