<svg width="16" height="16" viewBox="0 0 16 16" fill="none" xmlns="http://www.w3.org/2000/svg">
<g id="hint-fill">
<path id="Union" fill-rule="evenodd" clip-rule="evenodd" d="M8.66659 1.99992C8.66659 1.63325 8.36659 1.33325 7.99992 1.33325C7.63325 1.33325 7.33325 1.63325 7.33325 1.99992V2.66659C7.33325 3.03325 7.63325 3.33325 7.99992 3.33325C8.36659 3.33325 8.66659 3.03325 8.66659 2.66659V1.99992ZM4.22655 3.28659C3.96655 3.02659 3.54655 3.02659 3.28655 3.28659C3.02655 3.54659 3.02655 3.96659 3.28655 4.22659L3.75989 4.69993C4.01989 4.95993 4.43989 4.95993 4.69989 4.69993C4.95989 4.43993 4.95989 4.01993 4.69989 3.75993L4.22655 3.28659ZM12.7132 3.28659C12.9732 3.54659 12.9732 3.96659 12.7132 4.22659L12.2399 4.69993C11.9799 4.95993 11.5599 4.95993 11.2999 4.69993C11.0399 4.43993 11.0399 4.01993 11.2999 3.75993L11.7732 3.28659C12.0332 3.02659 12.4532 3.02659 12.7132 3.28659ZM10.8332 10.8266C11.3932 10.2666 11.7732 9.55992 11.9265 8.77992C12.0799 8.00659 11.9999 7.19992 11.6999 6.47325C11.3932 5.73992 10.8799 5.11325 10.2265 4.67325C9.56654 4.23325 8.78654 3.99992 7.99988 3.99992C7.21321 3.99992 6.43988 4.23325 5.77988 4.67325C5.11988 5.11325 4.61321 5.73992 4.30654 6.47325C4.00654 7.19992 3.92654 8.00659 4.07988 8.77992C4.23321 9.55992 4.61321 10.2666 5.17321 10.8266L5.53988 11.1933C5.65988 11.3133 5.75988 11.4533 5.83321 11.6066C5.83584 11.6118 5.83951 11.6161 5.84298 11.6201C5.84832 11.6262 5.85321 11.6318 5.85321 11.6399C5.95321 11.8466 5.99988 12.0799 5.99988 12.3133V12.6666C5.99988 13.1999 6.21321 13.7066 6.58654 14.0799C6.96654 14.4533 7.46654 14.6666 7.99988 14.6666C8.53321 14.6666 9.03988 14.4533 9.41988 14.0799C9.79321 13.7066 9.99988 13.1999 9.99988 12.6666V12.3133C9.99988 12.1066 10.0465 11.8999 10.1265 11.7066C10.1999 11.5133 10.3199 11.3399 10.4665 11.1933L10.8332 10.8266ZM1.33325 7.99992C1.33325 7.63325 1.63325 7.33325 1.99992 7.33325H2.66659C3.03325 7.33325 3.33325 7.63325 3.33325 7.99992C3.33325 8.36659 3.03325 8.66659 2.66659 8.66659H1.99992C1.63325 8.66659 1.33325 8.36659 1.33325 7.99992ZM13.3333 7.33325C12.9666 7.33325 12.6666 7.63325 12.6666 7.99992C12.6666 8.36659 12.9666 8.66659 13.3333 8.66659H13.9999C14.3666 8.66659 14.6666 8.36659 14.6666 7.99992C14.6666 7.63325 14.3666 7.33325 13.9999 7.33325H13.3333Z" fill="#FFC147"/>
</g>
</svg>
