<svg width="24" height="24" viewBox="0 0 24 24" fill="none" xmlns="http://www.w3.org/2000/svg">
<path d="M21.3392 14.3047H17.7906C17.4144 14.3047 17.1094 14.5984 17.1094 14.9607V21.3442C17.1094 21.7065 17.4144 22.0002 17.7906 22.0002H21.3392C21.7052 22.0002 22.0001 21.7163 22.0001 21.3638V14.9509C22.0001 14.5984 21.7052 14.3145 21.3392 14.3145V14.3047Z" fill="#424549"/>
<path d="M2 13.5991V21.3338C2 21.696 2.30504 21.9995 2.69141 21.9995H6.20949C6.58569 21.9995 6.89073 21.7058 6.89073 21.3435V13.5893C6.89073 13.2858 6.63653 13.041 6.32133 13.041H2.5999C2.26436 13.041 2 13.2956 2 13.6187V13.5991Z" fill="#424549"/>
<path d="M15.116 10.418H8.89333C8.52729 10.418 8.23242 10.7019 8.23242 11.0544V21.315C8.23242 21.6871 8.54762 21.9906 8.934 21.9906H15.0754C15.4719 21.9906 15.7871 21.6871 15.7871 21.3052V11.0544C15.7871 10.7019 15.4923 10.418 15.1262 10.418H15.116Z" fill="#424549"/>
<path d="M15.5944 2.7906L13.9778 3.75009L12.2899 2.12483C12.117 1.95839 11.8323 1.95839 11.6595 2.12483L9.97163 3.75009L8.35494 2.7906C8.02957 2.59479 7.62286 2.85914 7.68386 3.22139L8.5888 8.78252C8.61931 8.98813 8.81249 9.14478 9.02602 9.14478H14.9234C15.1369 9.14478 15.3301 8.98813 15.3606 8.78252L16.2655 3.22139C16.3265 2.85914 15.9198 2.60458 15.5944 2.7906Z" fill="#424549"/>
</svg>
