<svg width="16" height="16" viewBox="0 0 16 16" fill="none" xmlns="http://www.w3.org/2000/svg">
<path fill-rule="evenodd" clip-rule="evenodd" d="M14.4905 13.6L12.7321 11.8424C12.6169 11.7273 12.5624 11.6727 12.5442 11.6121C12.5199 11.5576 12.5139 11.503 12.526 11.4363C12.5381 11.3757 12.5866 11.303 12.6897 11.1636C13.4052 10.1515 13.8235 8.90907 13.8235 7.57574C13.8235 4.13331 11.0283 1.33331 7.57827 1.33331C4.12822 1.33331 1.33301 4.12725 1.33301 7.57574C1.33301 11.0242 4.12822 13.8182 7.57827 13.8182C8.91221 13.8182 10.1552 13.4 11.1678 12.6848C11.3133 12.5818 11.38 12.5333 11.4467 12.5212C11.5013 12.5091 11.5619 12.5151 11.6165 12.5394C11.6771 12.5576 11.7377 12.6121 11.8469 12.7273L13.6053 14.4848C13.8478 14.7273 14.2419 14.7273 14.4844 14.4848C14.727 14.2424 14.727 13.8485 14.4844 13.606L14.4905 13.6ZM7.57827 12.5636C4.81944 12.5636 2.58206 10.3273 2.58206 7.56968C2.58206 4.8121 4.81944 2.57573 7.57827 2.57573C10.3371 2.57573 12.5745 4.8121 12.5745 7.56968C12.5745 10.3273 10.3371 12.5636 7.57827 12.5636Z" fill="#1F1F1F"/>
</svg>
