<svg width="16" height="16" viewBox="0 0 16 16" fill="none" xmlns="http://www.w3.org/2000/svg">
<g id="notification">
<path id="Vector" d="M13.1251 11.4462L12.2182 10.5641V7.1453C12.2182 5.04616 11.0653 3.28889 9.05465 2.82393V2.35898C9.05465 1.79146 8.58363 1.33334 8.00012 1.33334C7.41661 1.33334 6.94559 1.79146 6.94559 2.35898V2.82393C4.92792 3.28889 3.78199 5.03932 3.78199 7.1453V10.5641L2.8751 11.4462C2.43219 11.8769 2.74152 12.6154 3.36721 12.6154H12.626C13.2587 12.6154 13.568 11.8769 13.1251 11.4462ZM10.8122 11.2479H5.18804V7.1453C5.18804 5.44958 6.2496 4.06838 8.00012 4.06838C9.75064 4.06838 10.8122 5.44958 10.8122 7.1453V11.2479ZM8.00012 14.6667C8.77344 14.6667 9.40616 14.0513 9.40616 13.2991H6.59408C6.59408 14.0513 7.21977 14.6667 8.00012 14.6667Z" fill="#C3C3C3"/>
</g>
</svg>
