<svg width="16" height="16" viewBox="0 0 16 16" fill="none" xmlns="http://www.w3.org/2000/svg">
<path d="M8.27658 14.6666C9.05001 14.6666 9.68282 14.0513 9.68282 13.2991H6.87034C6.87034 14.0513 7.49612 14.6666 8.27658 14.6666ZM12.4953 10.5641V7.14528C12.4953 5.04613 11.3422 3.28887 9.33126 2.82391V2.35895C9.33126 1.79143 8.86017 1.33331 8.27658 1.33331C7.69299 1.33331 7.2219 1.79143 7.2219 2.35895V2.82391C5.20395 3.28887 4.05787 5.0393 4.05787 7.14528V10.5641L3.15084 11.4461C2.70788 11.8769 3.01725 12.6154 3.64303 12.6154H12.9031C13.5289 12.6154 13.8453 11.8769 13.4023 11.4461L12.4953 10.5641Z" fill="#1F1F1F"/>
</svg>
