<svg width="16" height="16" viewBox="0 0 16 16" fill="none" xmlns="http://www.w3.org/2000/svg">
<g clip-path="url(#clip0_153_34038)">
<path d="M8.66667 5.33334C8.66667 3.86001 7.47334 2.66667 6 2.66667C4.52667 2.66667 3.33334 3.86001 3.33334 5.33334C3.33334 6.80667 4.52667 8 6 8C7.47334 8 8.66667 6.80667 8.66667 5.33334ZM7.33334 5.33334C7.33334 6.06667 6.73334 6.66667 6 6.66667C5.26667 6.66667 4.66667 6.06667 4.66667 5.33334C4.66667 4.6 5.26667 4.00001 6 4.00001C6.73334 4.00001 7.33334 4.6 7.33334 5.33334ZM0.666672 12V13.3333H11.3333V12C11.3333 10.2267 7.78 9.33334 6 9.33334C4.22 9.33334 0.666672 10.2267 0.666672 12ZM2.00001 12C2.13334 11.5267 4.2 10.6667 6 10.6667C7.79334 10.6667 9.85334 11.52 10 12H2.00001ZM13.3333 10V8H15.3333V6.66667H13.3333V4.66667H12V6.66667H10V8H12V10H13.3333Z" fill="#141414"/>
</g>
<defs>
<clipPath id="clip0_153_34038">
<rect width="16" height="16" fill="white"/>
</clipPath>
</defs>
</svg>
