<svg width="16" height="16" viewBox="0 0 16 16" fill="none" xmlns="http://www.w3.org/2000/svg">
<path fill-rule="evenodd" clip-rule="evenodd" d="M6.61772 1.33337H9.38196C10.5975 1.33336 11.5774 1.33334 12.348 1.43699C13.1481 1.5446 13.8219 1.77483 14.3568 2.31017C14.8918 2.84499 15.122 3.51861 15.2296 4.31851C15.3332 5.08916 15.3332 6.06904 15.3332 7.2846V7.38215C15.3332 8.59771 15.3332 9.57759 15.2296 10.3482C15.122 11.1481 14.8918 11.8218 14.3568 12.3566C13.8219 12.8919 13.1481 13.1221 12.348 13.2298C11.5774 13.3334 10.5975 13.3334 9.38195 13.3334H9.33317C8.96498 13.3334 8.66651 13.0349 8.66651 12.6667C8.66651 12.2985 8.96498 12 9.33317 12C10.609 12 11.4989 11.9986 12.1703 11.9083C12.8225 11.8206 13.1678 11.6602 13.4136 11.4142C13.6596 11.1684 13.8204 10.8227 13.9081 10.1705C13.9984 9.49911 13.9998 8.60923 13.9998 7.33338C13.9998 6.05752 13.9984 5.16764 13.9081 4.49624C13.8204 3.84401 13.66 3.49876 13.414 3.25298C13.1682 3.00699 12.8225 2.84615 12.1703 2.75843C11.4989 2.66813 10.609 2.66671 9.33317 2.66671H6.66651C5.39065 2.66671 4.50077 2.66813 3.82937 2.75843C3.17714 2.84615 2.83189 3.00659 2.58611 3.25258C2.34012 3.49836 2.17928 3.84401 2.09156 4.49624C2.00126 5.16764 1.99984 6.05752 1.99984 7.33338C1.99984 8.60923 2.00126 9.49911 2.09156 10.1705C2.17928 10.8227 2.33972 11.168 2.58571 11.4138L2.58627 11.4143C2.85991 11.6884 3.25673 11.8563 4.06466 11.9352C4.4311 11.971 4.69915 12.2971 4.66335 12.6635C4.62755 13.03 4.30146 13.298 3.93502 13.2622C3.00977 13.1718 2.24003 12.9544 1.64305 12.3567C1.10789 11.8219 0.877714 11.1482 0.770121 10.3482C0.666471 9.57759 0.666486 8.59771 0.666504 7.38217V7.28459C0.666486 6.06904 0.666471 5.08916 0.770121 4.31851C0.877718 3.51851 1.1079 2.84482 1.6431 2.30997C2.17795 1.77477 2.85164 1.54459 3.65164 1.43699C4.42229 1.33334 5.40217 1.33336 6.61772 1.33337Z" fill="#D2D3D3"/>
<path fill-rule="evenodd" clip-rule="evenodd" d="M5.33313 6.66675C5.70132 6.66675 5.9998 6.96522 5.9998 7.33341V7.34008C5.9998 7.70827 5.70132 8.00675 5.33313 8.00675C4.96494 8.00675 4.66646 7.70827 4.66646 7.34008V7.33341C4.66646 6.96522 4.96494 6.66675 5.33313 6.66675ZM7.9998 6.66675C8.36799 6.66675 8.66646 6.96522 8.66646 7.33341V7.34008C8.66646 7.70827 8.36799 8.00675 7.9998 8.00675C7.63161 8.00675 7.33313 7.70827 7.33313 7.34008V7.33341C7.33313 6.96522 7.63161 6.66675 7.9998 6.66675ZM10.6665 6.66675C11.0347 6.66675 11.3331 6.96522 11.3331 7.33341V7.34008C11.3331 7.70827 11.0347 8.00675 10.6665 8.00675C10.2983 8.00675 9.9998 7.70827 9.9998 7.34008V7.33341C9.9998 6.96522 10.2983 6.66675 10.6665 6.66675ZM4.39297 11.0028C4.75968 11.0358 5.03015 11.3599 4.9971 11.7266L4.96904 12.038C4.90502 12.7394 4.86387 13.204 4.87247 13.5239C4.87324 13.5524 4.87439 13.578 4.87581 13.601C4.90936 13.5898 4.94776 13.576 4.99149 13.559C5.32342 13.43 5.78397 13.192 6.46535 12.8384C7.32716 12.3912 8.34948 12.0001 9.33313 12.0001C9.70132 12.0001 9.9998 12.2986 9.9998 12.6667C9.9998 13.0349 9.70132 13.3334 9.33313 13.3334C8.66879 13.3334 7.87508 13.609 7.07957 14.0218C7.07956 14.0218 7.07959 14.0218 7.07957 14.0218L7.03874 14.043C6.4064 14.3712 5.88177 14.6435 5.47443 14.8018C5.26502 14.8832 5.04285 14.9525 4.82359 14.9732C4.59568 14.9947 4.32357 14.9674 4.07472 14.8001C3.60646 14.4858 3.54951 13.9277 3.53962 13.5597C3.52862 13.1502 3.57843 12.6046 3.63746 11.9581L3.66915 11.6069C3.7022 11.2402 4.02627 10.9697 4.39297 11.0028Z" fill="#D2D3D3"/>
</svg>
