<svg width="16" height="16" viewBox="0 0 16 16" fill="none" xmlns="http://www.w3.org/2000/svg">
<g clip-path="url(#clip0_2439_34254)">
<path d="M2.63981 7.58663C2.82647 6.60663 3.74647 5.93329 4.74647 5.93329H6.69981C7.04647 5.93329 7.33314 5.64663 7.33314 5.29996C7.33314 4.95329 7.04647 4.66663 6.69981 4.66663H4.81314C3.07314 4.66663 1.51981 5.93996 1.35314 7.67329C1.15981 9.65996 2.71981 11.3333 4.66647 11.3333H6.69981C7.04647 11.3333 7.33314 11.0466 7.33314 10.7C7.33314 10.3533 7.04647 10.0666 6.69981 10.0666H4.66647C3.39314 10.0666 2.38647 8.90663 2.63981 7.58663ZM5.99981 8.66663H9.99981C10.3665 8.66663 10.6665 8.36663 10.6665 7.99996C10.6665 7.63329 10.3665 7.33329 9.99981 7.33329H5.99981C5.63314 7.33329 5.33314 7.63329 5.33314 7.99996C5.33314 8.36663 5.63314 8.66663 5.99981 8.66663ZM11.1865 4.66663H9.29981C8.95314 4.66663 8.66647 4.95329 8.66647 5.29996C8.66647 5.64663 8.95314 5.93329 9.29981 5.93329H11.2531C12.2531 5.93329 13.1731 6.60663 13.3598 7.58663C13.6131 8.90663 12.6065 10.0666 11.3331 10.0666H9.29981C8.95314 10.0666 8.66647 10.3533 8.66647 10.7C8.66647 11.0466 8.95314 11.3333 9.29981 11.3333H11.3331C13.2798 11.3333 14.8398 9.65996 14.6531 7.67329C14.4865 5.93996 12.9265 4.66663 11.1865 4.66663Z" fill="#D2D3D3"/>
</g>
<defs>
<clipPath id="clip0_2439_34254">
<rect width="16" height="16" fill="white"/>
</clipPath>
</defs>
</svg>
