<svg width="16" height="16" viewBox="0 0 16 16" fill="none" xmlns="http://www.w3.org/2000/svg">
<path fill-rule="evenodd" clip-rule="evenodd" d="M3.3335 5.33333C2.96531 5.33333 2.66683 5.63181 2.66683 6V11.3333C2.66683 11.7015 2.96531 12 3.3335 12H12.6668C13.035 12 13.3335 11.7015 13.3335 11.3333V6C13.3335 5.63181 13.035 5.33333 12.6668 5.33333H3.3335ZM1.3335 6C1.3335 4.89543 2.22893 4 3.3335 4H12.6668C13.7714 4 14.6668 4.89543 14.6668 6V11.3333C14.6668 12.4379 13.7714 13.3333 12.6668 13.3333H3.3335C2.22893 13.3333 1.3335 12.4379 1.3335 11.3333V6Z" fill="#D2D3D3"/>
<path fill-rule="evenodd" clip-rule="evenodd" d="M7.3335 3.33333C7.15669 3.33333 6.98712 3.40357 6.86209 3.5286C6.73707 3.65362 6.66683 3.82319 6.66683 4H9.3335C9.3335 3.82319 9.26326 3.65362 9.13823 3.5286C9.01321 3.40357 8.84364 3.33333 8.66683 3.33333H7.3335ZM5.91928 2.58579C6.29436 2.21071 6.80306 2 7.3335 2H8.66683C9.19726 2 9.70597 2.21071 10.081 2.58579C10.4561 2.96086 10.6668 3.46957 10.6668 4V4.66667C10.6668 5.03486 10.3684 5.33333 10.0002 5.33333H6.00016C5.63197 5.33333 5.3335 5.03486 5.3335 4.66667V4C5.3335 3.46957 5.54421 2.96086 5.91928 2.58579ZM6.07111 7.70073C6.23639 7.37172 6.63709 7.239 6.9661 7.40428L7.10566 7.47439C7.10581 7.47447 7.10596 7.47454 7.10611 7.47462C7.38372 7.61335 7.68981 7.68558 8.00016 7.68558C8.3105 7.68558 8.61658 7.61336 8.89419 7.47463C8.89434 7.47455 8.8945 7.47447 8.89466 7.47439L9.03423 7.40428C9.36323 7.239 9.76393 7.37172 9.92922 7.70073C10.0945 8.02974 9.96177 8.43044 9.63277 8.59572L9.4921 8.66639L9.491 8.66694C9.02811 8.8984 8.51769 9.01891 8.00016 9.01891C7.48263 9.01891 6.97221 8.8984 6.50933 8.66694L6.50823 8.66639L6.36756 8.59572C6.03855 8.43044 5.90583 8.02974 6.07111 7.70073Z" fill="#D2D3D3"/>
</svg>
